<?xml version="1.0" encoding="UTF-8"?>
<svg id="Capa_1" xmlns="http://www.w3.org/2000/svg" version="1.1" viewBox="0 0 141.73 141.73">
  <!-- Generator: Adobe Illustrator 29.5.1, SVG Export Plug-In . SVG Version: 2.1.0 Build 141)  -->
  <defs>
    <style>
      .st0 {
        font-family: Lato-Bold, Lato;
        font-size: 11.12px;
        font-weight: 700;
      }

      .st0, .st1 {
        fill: #201f21;
      }

      .st0, .st2 {
        isolation: isolate;
      }

      .st3 {
        fill: #212022;
      }
    </style>
  </defs>
  <g id="f523b65977">
    <path class="st1" d="M78.7,25.06c.37.24.61.44.84.82.44.84.49,1.59.47,2.53-.13,2.97-1.66,6.2-2.95,8.82l-.24.5c-.19.38-.37.75-.57,1.12-.15.29-.3.58-.44.87-2.17,4.27-4.92,8.35-7.83,12.16-.2.26-.39.51-.59.77-1.72,2.28-3.51,4.49-5.46,6.58-.25.27-.5.55-.74.84-.77.89-1.37,1.45-1.79,1.69-.25.16-.42.37-.5.63l-.09.42-.05.23c-.05.24-.1.48-.15.72-.04.16-.07.32-.11.48-.27,1.22-.41,2.38-.41,3.63v.36c-.01.79.07,1.49.38,2.23.31.51.69.86,1.21,1.17.66.18,1.23.21,1.9.04,3.44-1.15,6.39-3.96,8.79-6.58.21-.24.41-.48.62-.72.12-.13.23-.26.34-.39,1.33-1.51,2.58-3.06,3.65-4.76,1.38-2.19,3.03-4.08,5.12-5.61l.29-.22c1.52-1.12,3.13-1.92,4.97-2.35l.28-.07c.92-.14,1.92-.17,2.82.05.76.3,1.35.72,1.92,1.3l.29.28.18.18.19-.09.28-.14.3-.19c.58-.23,1.08-.25,1.69-.16.52.17.96.39,1.37.77.22.27.36.53.44.87.09.7,0,1.23-.26,1.89l-.11.31c-.28.75-.64,1.43-1.04,2.13-1.76,3.09-3.59,7.08-3.6,10.69v.4c.04.44.13.71.39,1.08.22.13.45.21.7.23,1.21-.23,2.22-1.01,3.16-1.75l.19-.15c1.68-1.34,3.2-2.9,4.6-4.52.17-.19.34-.38.51-.56.55-.61,1.08-1.25,1.59-1.89l.22-.27c.52-.64,1.02-1.29,1.52-1.94l.2-.26.19-.25.17-.22c.2-.26.34-.55.43-.86l.03-.36c.17-1.21.76-2.32,1.48-3.29.14-.17.28-.33.43-.49l.28-.31c1.2-1.26,2.61-2.28,4.28-2.8,1.33-.38,2.58-.57,3.95-.26.81.2,1.5.48,2.13,1.04.35.35.63.72.82,1.17.08.53.02.98-.14,1.49-.23.41-.42.68-.8.97-.27.08-.55.12-.82.12-.4-.23-.64-.54-.93-.89-.22-.26-.36-.4-.67-.56-.88-.15-1.71-.13-2.56.17-.58.25-1.08.5-1.48,1-.55.76-1.08,1.54-1.18,2.49,0,1.54.55,2.66,1.29,3.97.29.5.59.98.9,1.47.4.63.8,1.27,1.12,1.94v.23c3.77-1.46,7.52-2.98,11.09-4.89.63-.33,1.27-.65,1.91-.97.14-.07.29-.14.43-.21.2-.1.41-.2.62-.3l.35-.17c.37-.13.64-.16,1.04-.12l.23.23c0,.2-.03.44-.12.7-.64,1.04-1.77,1.61-2.8,2.18-2.18,1.18-4.42,2.22-6.68,3.22l-.66.29c-1.08.48-2.17.96-3.26,1.42-.12.05-.23.1-.35.15-.19.07-.36.11-.52.11l.1.23c.4,1,.56,1.92.44,2.99-.21,1.18-.66,2.2-1.42,3.13-1.35,1.57-3.09,2.52-5,3.24-1.21.4-2.34.51-3.61.52h-.36c-.78,0-1.48-.08-2.2-.39-.39-.26-.71-.52-.96-.92-.19-.46-.15-.92-.1-1.42.23-.94.76-1.64,1.4-2.34,1.72-1.73,3.75-3.01,5.88-4.16l.23-.12c.35-.19.61-.28.79-.28-.4-.87-.85-1.66-1.39-2.45-.42-.61-.82-1.24-1.22-1.86l-.17-.27c-.38-.6-.74-1.22-1.08-1.84-.43.53-.84,1.06-1.26,1.6-.59.76-1.18,1.51-1.78,2.26l-.25.31c-.54.66-1.09,1.31-1.68,1.93-.23.25-.45.5-.67.76-1.37,1.56-2.86,3.03-4.54,4.25l-.33.26c-1.18.9-2.39,1.52-3.85,1.8-.73.09-1.31.05-2-.2-.69-.29-1.18-.74-1.66-1.3-.56-.82-.82-1.8-.92-2.78-.09-1.46,0-2.93.47-4.33-.44.43-.84.87-1.23,1.34l-.19.22c-.31.36-.61.72-.91,1.08-1.26,1.51-2.59,2.91-4.21,4.03l-.22.16c-1.32.9-2.59,1.48-4.2,1.63-.62.02-1.12,0-1.69-.27-.58-.33-1-.74-1.37-1.29-.63-1.26-.55-2.72-.47-4.09.08-.45.19-.86.35-1.29l.12-.35c-.38.38-.75.77-1.11,1.17-.64.71-1.31,1.39-1.99,2.07l-.31.31c-.7.7-1.43,1.34-2.21,1.95l-.24.19c-1.71,1.33-3.48,2.2-5.63,2.54-1.21.16-2.32.11-3.49-.27-.89-.37-1.62-.88-2.22-1.64-.73-1.07-1.12-2.34-1.29-3.63-.38-5.82,1.84-11.92,3.94-17.26.12-.3.24-.61.36-.91,1.1-2.85,1.97-4.94,2.61-6.27l.15-.32c2.09-4.46,4.37-8.9,7.45-12.78l.26-.33c.5-.62,1.03-1.21,1.6-1.76.22-.22.43-.45.63-.7,1.01-1.16,2.28-2.05,3.6-2.82l.35-.21c1.18-.64,2.67-1.14,3.97-.61M76.71,27.63c-.21.16-.41.35-.63.56-.32.3-.63.59-.97.86-.23.19-.44.39-.63.62l-.21.25-.25.29c-.11.12-.22.25-.33.37-.78.89-1.47,1.8-2.13,2.79-.09.13-.18.27-.27.4-.82,1.2-1.57,2.44-2.3,3.69l-.14.24c-2,3.43-3.7,7.02-5.21,10.69-.19.47-.39.94-.59,1.41-.63,1.5-1.22,3-1.78,4.52-.12.33-.25.66-.37.99l-.23.61-.11.28c-.13.36-.24.64-.24,1.03h.23c.18-.22.35-.44.52-.66.42-.55.84-1.09,1.29-1.62.57-.66,1.11-1.35,1.64-2.05.2-.27.41-.54.62-.81.98-1.27,1.92-2.55,2.84-3.87l.17-.24c4.2-5.81,7.42-12.04,9.66-18.71.03-.43.05-.86,0-1.29l-.23-.35h-.35,0ZM83.92,55.09c-1.29,1-2.35,2.16-3.32,3.46-.13.17-.26.34-.39.51-2.04,2.69-3.93,6.3-4.41,9.66-.04.47-.04.91.09,1.37.11.22.26.37.47.47.55,0,.95-.1,1.44-.35,4.78-2.87,8.57-8.48,11.33-13.17l.14-.24c.1-.17.2-.37.3-.62-.07-.34-.25-.49-.48-.75-.52-.54-1.1-.99-1.74-1.35-1.32-.2-2.38.25-3.43,1.03M60.22,57.22l.12.23-.12-.23ZM108.08,69.55c-1.55.92-3.31,2.25-4.32,3.76-.11.19-.18.41-.2.65l.05.34c.13.14.29.25.47.35.73.12,1.47,0,2.17-.23,1.01-.43,1.88-1.07,2.63-1.87.28-.37.5-.75.7-1.17l.15-.3c.17-.38.31-.72.33-1.13-.04-.42-.14-.78-.36-1.14-.54,0-1.14.48-1.61.75"/>
    <path class="st3" d="M48.53,20.01c.88.33,1.74.82,2.38,1.52.53.68.99,1.41,1.18,2.26.23,1.83-.24,3.43-.91,5.12-.65,1.48-1.39,2.88-2.3,4.21l-.14.21c-.91,1.31-1.9,2.53-2.98,3.7-.22.24-.44.49-.65.74-.92,1.06-1.94,2.05-3.04,2.92-.29.23-.57.47-.85.72-1.89,1.64-4.04,2.95-6.12,4.32l-.37.25-.39.25c-.21.12-.35.27-.43.45l.23-.12c2.42-.17,4.87.47,7.03,1.53,1.51.77,2.91,1.98,3.86,3.39,1.16,1.87,1.77,3.65,1.97,5.84h.41c1.14-.02,2.27,0,3.41.1l.35.03c.92.08,1.6.19,2.03.34l.23.23c.03.18.03.38,0,.58-.12.2-.28.4-.47.59-.59.32-1.03.39-1.7.37h-.33s-.34-.02-.34-.02c-.36,0-.72-.02-1.08-.04-.25,0-.49-.01-.73-.02-.6-.02-1.19-.04-1.79-.06l-.07.42c-.16,1-.33,1.99-.6,2.96l-.09.33c-.33,1.14-.75,2.23-1.23,3.32l-.13.3c-1.62,3.63-3.9,6.78-6.65,9.64l-.2.21c-.86.89-1.75,1.71-2.72,2.48-.14.12-.28.23-.43.35-2.83,2.35-5.97,4.25-9.28,5.84l-.32.16c-3.3,1.54-6.71,2.57-10.32,3l-.25.03c-.96.12-1.93.11-2.9.11-.31,0-.62,0-.92,0-1.6,0-3.18-.1-4.66-.77l-.25-.11c-1.35-.6-2.62-1.32-3.53-2.52-.76-1.16-1.06-2.26-1.15-3.63-.06-1.8.54-3.5,1.37-5.06,2.02-3.69,5.4-6.5,8.8-8.88-.35-.12-.65-.15-1.02-.18l-.35-.03-.27-.02c-.05-.15-.09-.35-.12-.59.08-.33.18-.66.29-.98l.1-.29c.11-.32.21-.64.32-.96.08-.23.15-.45.23-.68.16-.47.31-.94.47-1.41.33-.98.65-1.97.97-2.96.3-.93.6-1.85.91-2.78.03-.09.06-.19.09-.29,1.1-3.36,2.28-6.69,3.55-9.99.14-.38.28-.76.43-1.14.77-2.07,1.6-4.13,2.46-6.17.37-.87.73-1.75,1.09-2.62,1.15-2.84,2.31-5.67,3.6-8.45l.16-.35c1.28-2.76,2.32-4.56,3.12-5.39.25-.13.52-.24.78-.33l.4-.14.34-.12.23-.12c.54-.05.93-.04,1.43.19.46.23.72.58,1.03.98-.64,1.41-1.34,2.77-2.08,4.13-.48.88-.94,1.76-1.38,2.66-.25.51-.51,1.02-.78,1.52-.74,1.36-1.37,2.76-2.01,4.17-.16.35-.32.7-.48,1.06-1.07,2.33-2.08,4.7-3.09,7.06.29-.35.55-.7.78-1.09l.17-.29.18-.3c1.32-2.22,2.8-4.34,4.37-6.39l.27-.36c1.57-2.07,3.25-4.06,5.02-5.96.3-.32.59-.64.87-.97,2.76-3.07,6.34-5.47,9.97-7.39l.34-.19c1.5-.78,3.06-.95,4.7-.48M40.79,25.33c-.78.6-1.52,1.25-2.26,1.9-.23.2-.46.4-.69.6-.14.13-.29.25-.43.38l-.27.23c-.8.71-1.55,1.46-2.31,2.22-.35.35-.7.7-1.05,1.04l-.52.51-.26.26c-.55.54-1.07,1.11-1.57,1.69l-.16.19c-.77.89-1.51,1.81-2.23,2.74-.19.24-.37.48-.56.72-1.47,1.86-2.82,3.78-4.03,5.82-.14.23-.28.46-.42.69-.62,1.03-1.21,2.07-1.79,3.12l-.51.92c-.66,1.2-1.29,2.41-1.87,3.65-.22.47-.45.93-.68,1.38-1.76,3.49-3.26,7.1-4.6,10.76-.15.41-.32.81-.49,1.22-.07.17-.1.37-.09.6.39-.14.76-.33,1.11-.55,8.04-4.9,17.79-7.27,27.11-7.95.32-.03.59-.07.9-.15-.03-1.15-.19-2.28-.47-3.39l-.12-.35c-.33-.87-.77-1.54-1.4-2.23l-.2-.22c-.89-.87-2.17-1.45-3.37-1.76-3.06-.68-6.03.06-8.95.97-1.01.32-2,.66-3,.99-.51.17-1.03.34-1.55.48-.1-.19-.19-.37-.28-.56l-.16-.32c-.17-.35-.26-.64-.3-1.03l.04-.43c.38-.52.82-.92,1.33-1.31l.21-.17c1.39-1.06,2.88-1.99,4.39-2.86,2.27-1.32,4.48-2.73,6.58-4.31l.21-.16c.97-.73,1.91-1.5,2.83-2.3l.25-.22c.23-.2.46-.4.68-.6l.3-.27c1.34-1.21,2.67-2.45,3.78-3.87.26-.33.54-.65.82-.97,1.59-1.91,2.77-4.23,3.35-6.64.11-.72.17-1.53-.04-2.23-.19-.38-.41-.7-.73-.98-2.23-.74-4.91,1.48-6.57,2.73M41.72,59.6l-.36.04-.39.04-.42.05c-3.16.38-6.26,1.01-9.33,1.82l-.35.09c-.7.19-1.4.39-2.1.61l-.35.11c-7.39,2.33-14.58,5.86-20.23,11.23l-.29.27c-1.49,1.42-2.75,3.12-3.44,5.07-.27,1.1-.25,2.45,0,3.55.21.66.58,1.14,1.05,1.64l.23.25c.89.87,1.99,1.27,3.17,1.6.85.22,1.69.35,2.56.38h.38c4.8.11,9.32-1.84,13.47-4.07,1.31-.73,2.55-1.53,3.73-2.44.2-.15.39-.3.59-.45,1.78-1.35,3.44-2.83,5.03-4.41l.23-.23c.52-.52,1.01-1.06,1.48-1.62l.17-.2c2.07-2.46,3.8-5.25,5-8.24.09-.22.18-.43.27-.65.59-1.4.84-2.88,1.1-4.37-.42-.1-.76-.12-1.19-.08"/>
    <path class="st1" d="M81.73,9.24h.39c2.27,0,4.5.12,6.75.38l.45.05c3.54.39,6.92,1.21,10.31,2.29l.38.12c2.83.89,5.51,2.07,8.16,3.39l.37.19c2.46,1.23,4.78,2.63,6.99,4.26l.25.18c1.9,1.4,3.71,2.91,5.45,4.49.34.31.69.6,1.04.89l.16.16v.23c.07.03.13.05.2.08.8.45,1.43,1.3,2.03,1.99.24.27.49.54.73.81.68.73,1.33,1.48,1.95,2.26.11.13.21.26.32.39,3.12,3.8,5.79,8.2,7.75,12.71l.13.3c2.35,5.43,3.92,11.08,4.64,16.95l.04.32c.23,2.06.24,4.13.24,6.2v.43c0,4.68-.45,9.29-1.58,13.84-.07.28-.14.57-.2.86-1.46,6.13-4.19,12.14-7.71,17.35l-.16.23c-1.16,1.73-2.35,3.44-3.7,5.03l-.31.37c-.57.68-1.16,1.36-1.76,2.02-.21.24-.43.48-.64.73-.41.47-.84.92-1.29,1.36l-.23.23c-.16.16-.32.32-.49.48-.25.25-.49.49-.74.74l-.48.47-.22.22c-.51.5-1.03.98-1.57,1.44-.13.11-.25.22-.38.33-.96.84-1.96,1.62-2.98,2.39-.28.21-.56.42-.83.64-4.19,3.21-8.86,5.68-13.7,7.75l-.29.13c-1.72.73-3.53,1.25-5.32,1.79-.24.07-.48.15-.72.22-1.21.37-2.43.65-3.67.9l-.3.06c-10.68,2.16-21.97,1.83-32.37-1.58-.38-.12-.76-.25-1.15-.37-4.27-1.37-8.32-3.21-12.16-5.55-.26-.16-.52-.31-.79-.47-.95-.56-1.89-1.15-2.8-1.78-.14-.1-.28-.19-.42-.28-.2-.13-.4-.27-.59-.41l-.34-.23c-.17-.18-.29-.41-.36-.69,0-.13,0-.26,0-.4.12-.19.27-.35.47-.47.33-.06.5-.08.82,0,.49.26.93.57,1.37.89.24.17.48.33.72.5l.36.25c.54.37,1.09.71,1.64,1.06l.21.14c2.04,1.29,4.24,2.42,6.45,3.37l.31.13c3.17,1.37,6.5,2.48,9.87,3.26l.35.08c1.92.45,3.86.75,5.82,1l.35.04c2.47.32,4.91.41,7.4.42h.44c2.3,0,4.54-.08,6.81-.38l.49-.06c8.35-1.03,16.41-3.72,23.6-8.13l.27-.16c3.23-1.95,6.23-4.22,9-6.79.29-.27.58-.53.88-.79.56-.51,1.1-1.04,1.64-1.57l.25-.25c.47-.47.91-.95,1.34-1.45.3-.35.62-.68.94-1.02.64-.69,1.24-1.39,1.83-2.13l.32-.4c1.47-1.81,2.79-3.7,4-5.69l.19-.32c.76-1.26,1.5-2.52,2.13-3.85.16-.33.33-.67.49-1,.8-1.61,1.5-3.23,2.1-4.92.11-.31.22-.61.33-.92,1.13-3.13,1.95-6.35,2.5-9.63l.04-.26c.33-1.98.54-3.95.64-5.95v-.28c.56-10.33-1.69-20.45-6.37-29.68-1.01-1.96-2.12-3.9-3.47-5.65-.15-.21-.3-.42-.45-.63-.86-1.19-1.76-2.34-2.7-3.47l-.16-.19c-.75-.89-1.52-1.76-2.32-2.6-.3-.32-.6-.64-.87-.98-.23-.27-.45-.5-.73-.73-.31-.26-.61-.53-.89-.82-1.03-1.04-2.2-1.94-3.33-2.86l-.25-.2c-1.49-1.2-3.06-2.26-4.66-3.3l-.26-.17c-7.8-5.11-17.24-7.9-26.52-8.42-1.15-.06-2.29-.06-3.44-.06h-.41c-.68,0-1.36,0-2.04.02h-.75s-.35.02-.35.02h-.32s-.28,0-.28,0c-.17-.03-.34-.1-.52-.2l-.2-.19c-.09-.32-.06-.61,0-.94.12-.15.27-.27.47-.35,1.97-.29,3.98-.26,5.96-.26"/>
    <g class="st2">
      <text class="st0" transform="translate(45.08 94.01)"><tspan x="0" y="0">PASTELERÍA</tspan></text>
      <text class="st0" transform="translate(45.08 107.35)"><tspan x="0" y="0">ARTESANAL</tspan></text>
    </g>
  </g>
</svg>